<?xml version="1.0" encoding="UTF-8"?>
<svg version="1.1" xmlns="http://www.w3.org/2000/svg" width="512" height="512">
<path d="M0 0 C4.329632 0.54071422 8.36279236 1.63012668 12.51025391 2.96191406 C13.38190186 3.23406738 14.2535498 3.5062207 15.15161133 3.78662109 C22.29866702 6.08018285 29.021797 8.89904598 35.69775391 12.33691406 C36.9083121 12.92753588 38.11926699 13.51734515 39.33056641 14.10644531 C48.72321082 18.77974633 56.71298672 24.56429825 64.69775391 31.33691406 C66.07447266 32.48353516 66.07447266 32.48353516 67.47900391 33.65332031 C73.65494922 38.98102623 78.76050766 44.85836625 83.69775391 51.33691406 C84.50083984 52.37460937 85.30392578 53.41230469 86.13134766 54.48144531 C106.79654162 81.82184101 115.68195735 114.93904919 120.69775391 148.33691406 C121.41576172 147.75425781 122.13376953 147.17160156 122.87353516 146.57128906 C169.23846306 109.58499998 230.05930235 89.64559157 289.13525391 88.96191406 C290.38757813 88.92453125 291.63990234 88.88714844 292.93017578 88.84863281 C294.1309375 88.83703125 295.33169922 88.82542969 296.56884766 88.81347656 C297.65093506 88.79365723 298.73302246 88.77383789 299.84790039 88.75341797 C302.69775391 89.33691406 302.69775391 89.33691406 305.05639648 91.1418457 C307.5596916 96.01476304 307.19064146 100.58350368 307.08837891 105.98144531 C307.08271912 107.10636887 307.07705933 108.23129242 307.07122803 109.39030457 C307.04886859 112.9771104 306.99867058 116.56291102 306.94775391 120.14941406 C306.92768846 122.58364441 306.90943777 125.01789044 306.89306641 127.45214844 C306.84900514 133.41407895 306.78209634 139.37542468 306.69775391 145.33691406 C307.8148877 145.6356543 307.8148877 145.6356543 308.95458984 145.94042969 C309.93717773 146.20533203 310.91976563 146.47023437 311.93212891 146.74316406 C312.90375977 147.00419922 313.87539063 147.26523438 314.87646484 147.53417969 C318.58058784 148.58810461 322.1324215 149.88967554 325.69775391 151.33691406 C326.33841797 151.58441406 326.97908203 151.83191406 327.63916016 152.08691406 C333.86014707 154.58050381 333.86014707 154.58050381 335.69775391 157.33691406 C336.38525391 160.52441406 336.38525391 160.52441406 336.69775391 163.33691406 C337.97650391 163.29050781 339.25525391 163.24410156 340.57275391 163.19628906 C342.2810637 163.15874379 343.98939899 163.12234661 345.69775391 163.08691406 C346.53693359 163.05339844 347.37611328 163.01988281 348.24072266 162.98535156 C354.24832059 162.89221051 358.69165837 163.92159631 363.69775391 167.33691406 C367.81852006 171.66900155 368.82131529 174.90458276 368.83197498 180.78056049 C368.83643283 181.9184204 368.84089067 183.05628031 368.8454836 184.22862083 C368.84520706 186.11204768 368.84520706 186.11204768 368.84492493 188.03352356 C368.8482238 189.37652257 368.85194942 190.71952059 368.85606641 192.06251734 C368.86609166 195.76107018 368.86980403 199.45960679 368.87245572 203.1581713 C368.87635714 207.14396266 368.88593549 211.12974114 368.89466858 215.11552429 C368.91443616 224.74434128 368.92449894 234.37315933 368.93339637 244.00199154 C368.93777823 248.53441135 368.94314525 253.06683 368.94838524 257.59924889 C368.96539676 272.66209705 368.97989199 287.72494449 368.98713398 302.78780079 C368.98904392 306.69715692 368.99096425 310.60651304 368.99291992 314.51586914 C368.99340366 315.48753919 368.9938874 316.45920924 368.9943858 317.46032383 C369.00269007 333.2085745 369.02803402 348.9567493 369.0605006 364.70496682 C369.09354826 380.86652966 369.11158061 397.0280539 369.11477822 413.18965071 C369.1169453 422.26660121 369.12572293 431.34344104 369.1512394 440.42035866 C369.17291499 448.14887508 369.18101229 455.87725396 369.17127261 463.60579733 C369.16671893 467.54986301 369.16867578 471.49364469 369.18803406 475.43767166 C369.20560266 479.04820359 369.20471993 482.65824302 369.18913677 486.26877972 C369.18562071 488.19386759 369.20183392 490.11896025 369.21874124 492.04397708 C369.17092687 498.42794181 369.09232989 502.53477295 364.69775391 507.33691406 C359.19871334 512.29946287 354.85646862 512.48790803 347.69036865 512.49754333 C346.75761085 512.50263115 345.82485304 512.50771897 344.86382985 512.51296097 C341.72481386 512.52871116 338.58582092 512.53721726 335.44677734 512.5456543 C333.20156202 512.55519058 330.95634818 512.56508164 328.71113586 512.57530212 C321.32648467 512.60670952 313.94182212 512.62695455 306.55712891 512.64550781 C305.3015194 512.64880513 304.0459099 512.65210246 302.75225163 512.6554997 C290.91496749 512.68627825 279.07768027 512.71315223 267.24036789 512.72991848 C264.49911236 512.73386792 261.75785691 512.73787092 259.01660156 512.74194336 C257.9946244 512.7434559 257.9946244 512.7434559 256.95200124 512.744999 C245.91521577 512.76200575 234.87865452 512.80311598 223.84197852 512.85396635 C212.50894692 512.90575238 201.17607329 512.93437947 189.8429091 512.94211537 C183.48044691 512.94707663 177.11838336 512.96220375 170.75603485 513.00185966 C164.77069753 513.03867417 158.78598741 513.0471523 152.80055809 513.03385353 C150.60394217 513.03390756 148.40729881 513.04423756 146.21078682 513.06560516 C143.21078964 513.09322875 140.21308906 513.08380338 137.21307373 513.06517029 C135.91018736 513.09036268 135.91018736 513.09036268 134.58098006 513.11606401 C129.00724023 513.0295931 126.20646851 511.81384907 122.28510594 507.8191238 C118.86584982 504.6263508 115.53573457 503.8413659 110.85791016 503.94628906 C106.39367901 504.75356413 102.29882324 507.50292268 99.33319408 510.89998877 C96.41132625 513.46719108 92.39594365 512.74615407 88.68363953 512.71786499 C87.28344447 512.72488495 87.28344447 512.72488495 85.85496265 512.73204672 C82.71346848 512.74405411 79.57240594 512.73451692 76.4309082 512.72509766 C74.18406926 512.72916088 71.93723231 512.73450136 69.69039917 512.74102783 C63.57668301 512.75473913 57.46311823 512.7493864 51.34939933 512.73989058 C44.95801104 512.73231092 38.56663597 512.73933513 32.17524719 512.74404907 C20.7488903 512.74986306 9.32261742 512.74051959 -2.10372528 512.72527106 C-12.46086738 512.71187703 -22.81790857 512.71418721 -33.17504883 512.72802734 C-45.20044622 512.74408922 -57.22576737 512.75005331 -69.2511794 512.74119055 C-75.61737598 512.73651103 -81.98350308 512.73589667 -88.34969521 512.74580002 C-94.33738372 512.75446312 -100.32488167 512.74845952 -106.31254959 512.73111725 C-108.51116939 512.7271484 -110.70980521 512.72829324 -112.90841866 512.73490524 C-115.90822295 512.74309518 -118.90741553 512.73282946 -121.90718079 512.71786499 C-123.21443641 512.72790324 -123.21443641 512.72790324 -124.54810125 512.73814428 C-130.23366328 512.68308131 -134.61991286 511.84084984 -138.94677734 507.80175781 C-142.04181351 503.75440283 -143.42313206 501.71084787 -143.46337891 496.65942383 C-143.47298645 495.68824112 -143.48259399 494.71705841 -143.49249268 493.71644592 C-143.49674255 492.66436447 -143.50099243 491.61228302 -143.50537109 490.52832031 C-143.51107117 489.45065903 -143.51677124 488.37299774 -143.52264404 487.26268005 C-143.53210133 484.98038721 -143.53863091 482.69808067 -143.54248047 480.41577148 C-143.55219659 476.91723966 -143.58321793 473.41929254 -143.61474609 469.92089844 C-143.62127488 467.70670923 -143.62652584 465.49251581 -143.63037109 463.27832031 C-143.6427179 462.22826309 -143.6550647 461.17820587 -143.66778564 460.09632874 C-143.66478455 459.12199387 -143.66178345 458.147659 -143.65869141 457.14379883 C-143.66233704 456.28601334 -143.66598267 455.42822784 -143.66973877 454.54444885 C-143.21338306 451.8031123 -142.52993405 450.9641997 -140.30224609 449.33691406 C-138.98224609 449.00691406 -137.66224609 448.67691406 -136.30224609 448.33691406 C-136.30224609 438.43691406 -136.30224609 428.53691406 -136.30224609 418.33691406 C-137.95224609 418.00691406 -139.60224609 417.67691406 -141.30224609 417.33691406 C-143.33939637 414.28118865 -143.55280597 413.68865664 -143.559515 410.25477219 C-143.56596389 409.42058439 -143.57241278 408.58639659 -143.5790571 407.72693038 C-143.57595989 406.8105071 -143.57286269 405.89408382 -143.56967163 404.94989014 C-143.5764683 403.48950014 -143.5764683 403.48950014 -143.58340228 401.99960732 C-143.59610862 398.72234684 -143.59442188 395.44525121 -143.59277344 392.16796875 C-143.59875486 389.82423182 -143.60555951 387.48049687 -143.61312866 385.13676453 C-143.63083684 378.75856592 -143.63548612 372.38042094 -143.63676023 366.00220013 C-143.6384178 361.35168606 -143.64421328 356.701184 -143.65043319 352.05067416 C-143.66705017 339.5457424 -143.67451697 327.04083914 -143.67309372 314.53589675 C-143.67301381 313.82554008 -143.6729339 313.11518341 -143.67285156 312.38330078 C-143.6727698 311.67207653 -143.67268804 310.96085228 -143.6726038 310.22807577 C-143.67179122 298.70635582 -143.69092035 287.18476671 -143.7191283 275.6630846 C-143.74786302 263.83284667 -143.7616682 252.00267252 -143.75994074 240.17239881 C-143.75927694 233.53060113 -143.76515352 226.88892397 -143.78629684 220.24715424 C-143.80564209 213.99925389 -143.80582887 207.75164316 -143.79126358 201.50373268 C-143.78916967 199.21038453 -143.79391089 196.91701843 -143.8059845 194.6237011 C-143.82140024 191.49274992 -143.81215231 188.36280184 -143.79672241 185.23187256 C-143.80700954 184.32437217 -143.81729666 183.41687177 -143.82789552 182.48187137 C-143.76383999 176.599624 -142.73705749 173.15407691 -139.30224609 168.33691406 C-134.8760743 164.90437267 -131.43792268 163.20177529 -125.85302734 163.23925781 C-125.00546875 163.24248047 -124.15791016 163.24570313 -123.28466797 163.24902344 C-122.40359375 163.25740234 -121.52251953 163.26578125 -120.61474609 163.27441406 C-119.27573242 163.28118164 -119.27573242 163.28118164 -117.90966797 163.28808594 C-115.70712623 163.29986424 -113.5047201 163.31631242 -111.30224609 163.33691406 C-111.20943359 161.97566406 -111.20943359 161.97566406 -111.11474609 160.58691406 C-110.30224609 157.33691406 -110.30224609 157.33691406 -108.48193359 155.24316406 C-103.71806282 152.38718257 -98.66005594 150.65771081 -93.42724609 148.83691406 C-91.75335815 148.24535522 -91.75335815 148.24535522 -90.0456543 147.6418457 C-69.0983799 140.33691406 -69.0983799 140.33691406 -61.30224609 140.33691406 C-61.31112854 139.02004105 -61.32001099 137.70316803 -61.3291626 136.34638977 C-61.41021349 123.94228468 -61.47019488 111.53823324 -61.50949478 99.13392353 C-61.53037843 92.75656926 -61.55871093 86.37942859 -61.60400391 80.00219727 C-61.64743293 73.84897446 -61.67137734 67.69595723 -61.68175507 61.542593 C-61.68915165 59.19380646 -61.70359523 56.8450313 -61.72516632 54.49633217 C-61.75416028 51.20897643 -61.75820365 47.92247258 -61.75634766 44.63500977 C-61.77072876 43.66180786 -61.78510986 42.68860596 -61.79992676 41.68591309 C-61.77347985 37.3630786 -61.69846892 34.98490652 -59.40155029 31.22846985 C-57.30224609 29.33691406 -57.30224609 29.33691406 -55.25927734 28.77392578 C-49.72913191 29.07737866 -44.63262985 29.96184722 -39.30224609 31.46191406 C-38.49424561 31.68129639 -37.68624512 31.90067871 -36.85375977 32.12670898 C-28.52023856 34.44711815 -20.41315683 37.34484212 -12.30224609 40.33691406 C-12.28822754 38.78580933 -12.28822754 38.78580933 -12.27392578 37.20336914 C-12.23395189 33.3544663 -12.1681736 29.5063566 -12.09472656 25.65795898 C-12.0665596 23.99465144 -12.04532377 22.3312111 -12.03125 20.66772461 C-12.00976017 18.27160882 -11.96308321 15.87708222 -11.91162109 13.48144531 C-11.91039246 12.74166946 -11.90916382 12.00189362 -11.90789795 11.23970032 C-11.80755844 7.675931 -11.36989868 5.45220027 -9.55395508 2.35766602 C-6.26935943 -0.59002977 -4.23286671 -0.22176221 0 0 Z " fill="#090909" transform="translate(143.30224609375,-0.3369140625)"/>
<path d="M0 0 C0.00586624 0.98083557 0.01173248 1.96167114 0.01777649 2.972229 C0.07497405 12.21288286 0.14772003 21.45330072 0.23571491 30.69371414 C0.28045438 35.44439246 0.31970257 40.19498431 0.34643555 44.94580078 C0.37243291 49.53008383 0.41280987 54.11403477 0.46318626 58.69811249 C0.47987916 60.44756695 0.49137834 62.19707888 0.49761391 63.94660187 C0.5072288 66.39607104 0.5352557 68.84468591 0.56762695 71.29394531 C0.56619186 72.01827255 0.56475677 72.74259979 0.5632782 73.48887634 C0.62058962 76.55241335 0.85625319 78.73033494 2.30827332 81.45428467 C4.05502093 83.3491661 4.05502093 83.3491661 7.5 83.4375 C10.86208104 83.29703175 10.86208104 83.29703175 12.68676758 81.80541992 C14.45879351 79.36925488 14.42894655 77.67213503 14.51171875 74.67578125 C14.54716797 73.64775391 14.58261719 72.61972656 14.61914062 71.56054688 C14.65297852 69.95276367 14.65297852 69.95276367 14.6875 68.3125 C14.72166016 67.22904297 14.75582031 66.14558594 14.79101562 65.02929688 C14.8735456 62.3529678 14.94267937 59.67696841 15 57 C16.56337173 57.45535099 18.12565849 57.91442776 19.6875 58.375 C20.99267578 58.75785156 20.99267578 58.75785156 22.32421875 59.1484375 C24.92513119 59.97617314 27.46577023 60.98630809 30 62 C30 152.09 30 242.18 30 335 C21.03428202 333.87928525 21.03428202 333.87928525 17.03125 332.73046875 C15.69755371 332.3595813 15.69755371 332.3595813 14.33691406 331.98120117 C13.40073242 331.71927979 12.46455078 331.4573584 11.5 331.1875 C3.13943644 328.92731836 -5.20387731 327.09459839 -13.75 325.6875 C-14.71228516 325.52854248 -15.67457031 325.36958496 -16.66601562 325.20581055 C-29.37879354 323.202645 -41.90522686 322.76728978 -54.75 322.75 C-55.61017731 322.74733124 -56.47035461 322.74466248 -57.3565979 322.74191284 C-70.46995664 322.72253763 -83.1327024 323.40209321 -96.0534668 325.83813477 C-98.24985694 326.02077702 -99.90399644 325.64183701 -102 325 C-70.33895214 312.66855801 -39.10115456 304.81314491 -4.96875 303.8046875 C-4.00614258 303.7727832 -3.04353516 303.74087891 -2.05175781 303.70800781 C-0.23386874 303.65414913 1.5846879 303.6185486 3.40332031 303.60449219 C4.61906738 303.57210449 4.61906738 303.57210449 5.859375 303.5390625 C6.56545898 303.53084473 7.27154297 303.52262695 7.99902344 303.51416016 C10.99339811 302.74474177 12.09631363 301.42143688 14 299 C14.38904693 296.42260117 14.53300174 294.27309784 14.49447632 291.69894409 C14.49930515 290.9618981 14.50413398 290.22485211 14.50910914 289.46547139 C14.52038492 286.99468723 14.50305835 284.52493697 14.48583984 282.05419922 C14.48798556 280.28347493 14.49186305 278.51275201 14.49734497 276.74203491 C14.50704553 271.93223502 14.49172723 267.12280582 14.47143888 262.31305075 C14.45388777 257.28513089 14.45739255 252.25722281 14.4581604 247.22927856 C14.45628693 238.78739202 14.43891495 230.3456492 14.41162109 221.90380859 C14.38014947 212.13348777 14.36962557 202.36332428 14.3710922 192.59295642 C14.37231137 183.20420254 14.36211453 173.81550008 14.34550858 164.42676163 C14.33843424 160.42599207 14.33478085 156.42524069 14.33372116 152.42446518 C14.33171728 147.71801842 14.3195487 143.0117046 14.29938889 138.30530167 C14.29353022 136.57426009 14.2910899 134.84320321 14.29224396 133.1121521 C14.29322023 130.756988 14.28196553 128.40220044 14.26742554 126.04708862 C14.27207134 125.00936383 14.27207134 125.00936383 14.276811 123.95067489 C14.32883935 120.03516909 14.32883935 120.03516909 12 117 C7.93904042 116.52786327 7.93904042 116.52786327 4 117 C0.62307226 120.38063306 0.61863684 123.20532742 0.60127258 127.85894775 C0.59462576 128.54840225 0.58797893 129.23785675 0.58113068 129.9482038 C0.56248341 132.2576116 0.56510703 134.56650208 0.56762695 136.87597656 C0.55861082 138.53172539 0.54828396 140.18746753 0.53674316 141.84320068 C0.5091295 146.33870577 0.49988273 150.83408436 0.49388909 155.32966328 C0.48451678 160.02758627 0.45831433 164.72541434 0.43388367 169.42327881 C0.3901835 178.3196178 0.36165815 187.2159384 0.33856028 196.11235213 C0.31152746 206.24048082 0.26761478 216.36851419 0.22227156 226.49657488 C0.12937491 247.33099868 0.05771716 268.165451 0 289 C-1.55137665 289.12208076 -1.55137665 289.12208076 -3.13409424 289.24662781 C-7.01990253 289.55368688 -10.90518302 289.86704264 -14.79034424 290.18217468 C-16.46281687 290.31697528 -18.13542288 290.45013255 -19.8081665 290.58152771 C-31.25527447 291.48212878 -42.41522244 292.66114879 -53.59033203 295.41113281 C-56.27052156 296.06610922 -58.9602833 296.66918035 -61.65234375 297.2734375 C-85.74323556 302.82439771 -108.04470038 311.70668639 -130 323 C-130.7822998 323.4021875 -131.56459961 323.804375 -132.37060547 324.21875 C-144.23845134 330.40926775 -155.52162215 337.84793746 -165.86328125 346.35546875 C-168 348 -168 348 -170 348 C-170.25188456 312.11787264 -170.44565983 276.23590053 -170.56171862 240.3530708 C-170.57547608 236.11493638 -170.58971365 231.8768037 -170.60424805 227.63867188 C-170.60713346 226.794951 -170.61001888 225.95123012 -170.61299173 225.08194195 C-170.66083127 211.42788944 -170.74754693 197.77434738 -170.84868076 184.1205975 C-170.95161889 170.10616727 -171.01266134 156.09200402 -171.03497344 142.07721126 C-171.05005283 133.43189678 -171.09764025 124.78802512 -171.18708114 116.1431549 C-171.24531634 110.21159799 -171.26278189 104.28078475 -171.24851515 98.34896286 C-171.24148158 94.92808509 -171.25210423 91.50972408 -171.31126022 88.08929634 C-171.6303074 66.4777597 -171.6303074 66.4777597 -167.617136 61.22813034 C-164.85516704 58.66531219 -162.27647667 56.83353771 -159 55 C-157.56453875 53.92281916 -156.13941053 52.83142009 -154.734375 51.71484375 C-153.412949 50.77952547 -152.08475347 49.85369873 -150.75 48.9375 C-150.02603027 48.43492676 -149.30206055 47.93235352 -148.55615234 47.41455078 C-141.55823301 42.60816155 -134.39682754 38.1632022 -127 34 C-126.29713867 33.60071289 -125.59427734 33.20142578 -124.87011719 32.79003906 C-97.52337752 17.39172103 -67.7927825 8.4064955 -37 3 C-36.28489258 2.87254395 -35.56978516 2.74508789 -34.83300781 2.61376953 C-23.37802185 0.61966566 -11.62020868 -0.04782497 0 0 Z " fill="#EFF4F9" transform="translate(434,104)"/>
<path d="M0 0 C18.58778505 5.80868283 18.58778505 5.80868283 24.25 8.8125 C24.90782471 9.1530542 25.56564941 9.4936084 26.2434082 9.84448242 C59.71470721 27.52106765 81.53654669 58.17145798 92.6171875 93.96484375 C97.22577318 109.97104197 100.17350354 126.56859484 100.12025452 143.23158264 C100.12110894 144.22340858 100.12196337 145.21523453 100.12284368 146.2371158 C100.12448256 149.53968774 100.11900331 152.84220818 100.11352539 156.14477539 C100.11324315 158.52045694 100.11340198 160.89613857 100.1139679 163.27182007 C100.11425443 169.70703996 100.10838096 176.14224116 100.10139394 182.57745671 C100.09529107 188.62561909 100.09477006 194.67378302 100.09374207 200.72194796 C100.09155693 212.69639005 100.08491147 224.6708253 100.07543945 236.64526367 C100.06625139 248.27286749 100.05917738 259.90046945 100.05493164 271.52807617 C100.05466892 272.24557759 100.05440619 272.96307902 100.05413551 273.70232291 C100.05283041 277.30204836 100.05156672 280.90177382 100.05032361 284.5014993 C100.03996777 314.33433765 100.02228946 344.16716802 100 374 C98.01547133 371.3985515 96.34754974 368.91986993 94.90625 365.98046875 C74.55343345 325.37287016 42.36864463 302.12288154 0 288 C0 192.96 0 97.92 0 0 Z " fill="#E3EBF1" transform="translate(148,17)"/>
<path d="M0 0 C1.58206057 0.00667536 3.16410534 0.0186375 4.74609375 0.03515625 C5.55240234 0.03966797 6.35871094 0.04417969 7.18945312 0.04882812 C9.18753131 0.06065107 11.18557158 0.07858711 13.18359375 0.09765625 C13.18505896 1.0449599 13.18505896 1.0449599 13.18655378 2.011401 C13.24478307 39.41329803 13.31854733 76.8151343 13.41258003 114.21695908 C13.42384865 118.70445356 13.43498703 123.19194835 13.44604492 127.67944336 C13.44824861 128.57285024 13.45045229 129.46625713 13.45272275 130.38673695 C13.48812776 144.86648718 13.51297378 159.34623735 13.53394077 173.82601485 C13.55567735 188.67555704 13.58870726 203.52504288 13.63229531 218.37453717 C13.65884907 227.54285056 13.67651697 236.71109371 13.68293979 245.87944367 C13.68818232 252.1603143 13.70436087 258.44109643 13.72925941 264.72191969 C13.74331356 268.34958689 13.75243074 271.9770955 13.74860191 275.60479164 C13.74458262 279.5318795 13.76353298 283.45865984 13.78486633 287.38569641 C13.78001876 288.54035143 13.77517118 289.69500644 13.77017671 290.88465101 C13.77963325 291.93215943 13.78908979 292.97966785 13.79883289 294.05891895 C13.8007315 294.96607082 13.8026301 295.87322269 13.80458623 296.80786401 C14.04138983 299.10950931 14.04138983 299.10950931 15.25871873 300.88898212 C18.16487395 302.71382508 21.04114316 302.50892549 24.36635494 302.47517967 C25.10643739 302.47953999 25.84651984 302.48390032 26.60902902 302.48839277 C29.10875221 302.49941058 31.60793087 302.48889698 34.10765076 302.47860718 C35.9099298 302.48206117 37.71220674 302.48682399 39.51447922 302.49278891 C44.48252349 302.50536416 49.45039588 302.49909899 54.41844094 302.48983026 C59.77026506 302.48306665 65.12205879 302.49350762 70.47387695 302.50177002 C80.96449534 302.51513865 91.45504948 302.51221563 101.94567042 302.5035321 C110.46912179 302.49676788 118.9925551 302.49583335 127.51600838 302.49910355 C128.72727988 302.49956325 129.93855138 302.50002294 131.18652808 302.50049657 C133.64690956 302.50145571 136.10729103 302.50242835 138.5676725 302.50341435 C161.66136452 302.5119775 184.75502086 302.5021198 207.84870703 302.48601325 C227.67918519 302.47261093 247.50961068 302.47493567 267.34008789 302.48876953 C290.34735055 302.50481193 313.3545819 302.51115166 336.36184937 302.50193274 C338.81368736 302.50097706 341.26552536 302.50003394 343.71736336 302.49910355 C344.92383173 302.49864072 346.13030011 302.49817789 347.37332813 302.49770104 C355.88947672 302.495107 364.4056055 302.49949109 372.92175102 302.50654221 C383.2959682 302.51494261 393.67011726 302.51270794 404.0443266 302.49669997 C409.34095308 302.4887973 414.63746584 302.48575953 419.93409157 302.49564743 C424.77805142 302.50455373 429.62179161 302.49972892 434.46573139 302.48371477 C436.222765 302.48034964 437.97981697 302.48209963 439.73683887 302.48934214 C442.11649073 302.49840249 444.49538006 302.48917208 446.87499142 302.47517967 C447.56472478 302.48220317 448.25445814 302.48922667 448.96509251 302.496463 C451.88147626 302.4619486 453.98365901 302.19730615 456.60864335 300.88898212 C458.69510878 298.51586643 458.6861448 297.19904015 458.69140244 294.05891895 C458.70285002 293.01141053 458.71429761 291.96390211 458.7260921 290.88465101 C458.71445147 289.15266848 458.71445147 289.15266848 458.70257568 287.38569641 C458.71007694 286.16215098 458.71757819 284.93860555 458.72530675 283.67798299 C458.74213465 280.27539897 458.74099751 276.87366474 458.73239923 273.47110546 C458.72746735 269.804409 458.74552306 266.13781865 458.76081848 262.47116089 C458.78416634 256.11637788 458.79287746 249.7617091 458.7917099 243.40688515 C458.79004287 234.21885086 458.81035281 225.03096916 458.8360652 215.84297552 C458.87718093 200.93690973 458.90046791 186.03087133 458.91259766 171.12475586 C458.92442017 156.64295824 458.94460534 142.1612122 458.97607422 127.67944336 C458.97801032 126.78711985 458.97994642 125.89479634 458.98194119 124.97543273 C458.99170554 120.49900702 459.00163469 116.02258169 459.01164579 111.54615653 C459.09451376 74.39668045 459.14847054 37.24720661 459.18359375 0.09765625 C461.99615656 0.07081313 464.80846616 0.05089437 467.62109375 0.03515625 C468.42353516 0.02677734 469.22597656 0.01839844 470.05273438 0.00976562 C472.09654596 0.00114195 474.14043277 0.04537475 476.18359375 0.09765625 C477.8665076 1.7805701 477.30904533 3.86021487 477.30943489 6.16861725 C477.31334651 7.82703337 477.31334651 7.82703337 477.31733716 9.51895285 C477.31399107 11.36370632 477.31399107 11.36370632 477.31057739 13.24572754 C477.31213738 14.5403625 477.31369737 15.83499745 477.31530464 17.16886377 C477.31950247 20.77898141 477.31740524 24.38907281 477.31431842 27.99919057 C477.31206637 31.88607418 477.31554295 35.77295312 477.31829834 39.65983582 C477.32275714 47.28080408 477.32177909 54.90176253 477.3188857 62.52273118 C477.31663209 68.71358533 477.31631896 74.9044367 477.31740952 81.09529114 C477.31756275 81.97465644 477.31771598 82.85402174 477.31787386 83.76003447 C477.31819357 85.54615621 477.31851778 87.33227794 477.31884645 89.11839968 C477.32170156 105.88742522 477.31841373 122.65644529 477.31304608 139.42546993 C477.30857802 153.8303616 477.30935394 168.2352452 477.31396484 182.64013672 C477.31931006 199.34702293 477.32142687 216.05390435 477.31835258 232.7607913 C477.31803401 234.54053465 477.31771964 236.32027801 477.31740952 238.10002136 C477.31725524 238.97580862 477.31710096 239.85159587 477.31694201 240.75392213 C477.3160767 246.94107722 477.31754005 253.12822929 477.31988907 259.31538391 C477.32268668 266.85009045 477.32194964 274.38478656 477.31660832 281.91949189 C477.31397078 285.76763491 477.31296714 289.61576052 477.31625748 293.46390343 C477.31976242 297.62581259 477.31559235 301.78767736 477.31057739 305.94958496 C477.31280811 307.17942061 477.31503884 308.40925626 477.31733716 309.67635965 C477.31472941 310.7819704 477.31212166 311.88758115 477.30943489 313.02669525 C477.30927254 313.98874422 477.30911019 314.95079318 477.30894291 315.94199514 C477.18359375 318.09765625 477.18359375 318.09765625 476.18359375 319.09765625 C473.38813828 319.20444182 470.61708944 319.2454396 467.82086182 319.24482727 C466.93332081 319.24850396 466.0457798 319.25218065 465.1313436 319.25596875 C462.13345513 319.26705237 459.13560126 319.27085732 456.13769531 319.2746582 C453.99790333 319.28091934 451.85811244 319.28756582 449.71832275 319.29457092 C443.88765748 319.31201364 438.05700043 319.32254161 432.2263155 319.33077645 C428.58678607 319.33591974 424.94725923 319.34199577 421.30773163 319.34828758 C409.93008516 319.36734888 398.55244523 319.38157794 387.17478585 319.38989955 C374.02351198 319.39967603 360.87240625 319.42600245 347.72119164 319.46640044 C337.56830965 319.4965221 327.41547594 319.51136468 317.26255012 319.51468056 C311.19308766 319.51703562 305.12380463 319.52605505 299.05438995 319.55114174 C293.34495663 319.57435826 287.63582167 319.57868152 281.92635345 319.56838036 C279.82889313 319.56788332 277.73141844 319.574253 275.63400269 319.5879364 C272.7737276 319.60555476 269.91453492 319.5985987 267.05426025 319.58540344 C265.80478965 319.60185731 265.80478965 319.60185731 264.53007722 319.61864358 C259.43389383 319.56175698 256.95806607 318.81150558 253.18359375 315.09765625 C244.91940334 310.30767827 235.45319851 309.46572726 226.2421875 311.86328125 C222.62948222 313.22006475 219.87754147 314.41485424 217.1015358 317.14627361 C213.09518022 319.82553611 210.02873477 319.64750437 205.31292725 319.58540344 C203.97225579 319.59158834 203.97225579 319.59158834 202.60450006 319.59789819 C199.60939403 319.6068289 196.61516276 319.58716643 193.62011719 319.56762695 C191.47324518 319.5681357 189.32637297 319.57039109 187.17950439 319.57426453 C181.34921602 319.57968842 175.51924484 319.56026164 169.68901348 319.53616357 C163.59560304 319.51489527 157.5021941 319.51546359 151.40875244 319.51347351 C141.1796725 319.50702424 130.95071208 319.48576732 120.72167969 319.4543457 C107.57367052 319.41401191 94.42573916 319.39665281 81.27767563 319.38703632 C69.99233641 319.37874841 58.70701382 319.36150825 47.42168903 319.34199882 C43.78419627 319.33592285 40.14670287 319.33078469 36.50920868 319.32564735 C30.80636784 319.31689041 25.10356595 319.30260696 19.40074921 319.28393745 C17.30161974 319.2777953 15.20248454 319.27335612 13.10334778 319.27069473 C10.2509695 319.26673745 7.39868062 319.25664331 4.54632568 319.24482727 C3.7044224 319.24501163 2.86251911 319.245196 1.9951036 319.24538594 C-3.70216985 319.21189265 -3.70216985 319.21189265 -4.81640625 318.09765625 C-4.92272967 316.76312452 -4.96256705 315.42318327 -4.97412109 314.08447266 C-4.98951431 312.80777206 -4.98951431 312.80777206 -5.00521851 311.50527954 C-5.01251984 310.57927948 -5.01982117 309.65327942 -5.02734375 308.69921875 C-5.05541153 306.75650198 -5.08407599 304.81379375 -5.11328125 302.87109375 C-5.15458086 299.79427316 -5.1914494 296.71761225 -5.21777344 293.640625 C-5.24532134 290.68065019 -5.29119428 287.72141172 -5.33984375 284.76171875 C-5.34309662 283.83976715 -5.34634949 282.91781555 -5.34970093 281.96792603 C-5.3662674 281.11048798 -5.38283386 280.25304993 -5.39990234 279.36962891 C-5.4079892 278.61541656 -5.41607605 277.86120422 -5.42440796 277.08413696 C-5.93147544 274.51453452 -6.73655107 273.66059428 -8.81640625 272.09765625 C-10.13640625 271.76765625 -11.45640625 271.43765625 -12.81640625 271.09765625 C-12.81640625 260.53765625 -12.81640625 249.97765625 -12.81640625 239.09765625 C-9.84640625 238.10765625 -9.84640625 238.10765625 -6.81640625 237.09765625 C-5.10497432 233.6747924 -5.6661504 229.74727917 -5.66491699 225.98033142 C-5.66068458 225.02377688 -5.65645217 224.06722235 -5.6520915 223.08168131 C-5.63901051 219.85645466 -5.63302819 216.63125276 -5.62695312 213.40600586 C-5.61901518 211.10194242 -5.61062758 208.79788048 -5.6018219 206.49382019 C-5.58373371 201.52285638 -5.56872938 196.55189596 -5.55604553 191.58091545 C-5.5358752 183.72950474 -5.50821685 175.87813162 -5.47937012 168.02674866 C-5.43951336 157.0265488 -5.4026966 146.02634241 -5.36865234 135.02612305 C-5.36648954 134.3277125 -5.36432674 133.62930196 -5.3620984 132.90972746 C-5.34457431 127.24189343 -5.32722898 121.57405886 -5.30989552 115.90622425 C-5.29473289 110.95042203 -5.27950038 105.99462003 -5.26416016 101.03881836 C-5.26200129 100.34095224 -5.25984242 99.64308613 -5.25761813 98.92407256 C-5.22155072 87.30407378 -5.18156052 75.68409183 -5.13885736 64.06411558 C-5.11042849 56.2501159 -5.08686143 48.43612078 -5.06693268 40.62209499 C-5.05358983 35.77208885 -5.03617526 30.92210369 -5.01762199 26.07211494 C-5.00983552 23.81334587 -5.00377938 21.55457012 -4.99952888 19.29579163 C-4.99352494 16.22649076 -4.98149814 13.15727259 -4.96789551 10.08799744 C-4.96759952 9.18179262 -4.96730353 8.2755878 -4.96699858 7.34192222 C-4.9240346 0.12599884 -4.9240346 0.12599884 0 0 Z " fill="#6C9CFC" transform="translate(19.81640625,177.90234375)"/>
<path d="M0 0 C0.00146656 0.9652145 0.00293312 1.930429 0.00444412 2.92489243 C0.04101271 26.39308878 0.10042752 49.86114214 0.18390274 73.32921982 C0.22373965 84.6781412 0.25610848 96.02699277 0.27099609 107.37597656 C0.28398852 117.26588107 0.3108914 127.15563227 0.35461307 137.04545045 C0.37728216 142.28376108 0.39290742 147.52188224 0.39188385 152.76024628 C0.39114045 157.68837289 0.40896199 162.61607982 0.44116783 167.5440979 C0.44970307 169.35491269 0.45139232 171.16577437 0.44580269 172.97660065 C0.43919552 175.44548675 0.45700289 177.91302464 0.48101807 180.3817749 C0.47325765 181.10162182 0.46549723 181.82146873 0.45750165 182.56312919 C0.51637728 185.97216748 0.7716679 187.70900894 2.90439987 190.42700577 C5.11703676 192.08784984 6.54832663 192.69120563 9.24609375 193.203125 C10.07238281 193.37416748 10.89867187 193.54520996 11.75 193.72143555 C12.636875 193.89586182 13.52375 194.07028809 14.4375 194.25 C45.32973218 201.01169264 74.34929857 216.40038025 99 236 C100.44826172 237.14275391 100.44826172 237.14275391 101.92578125 238.30859375 C106.67363118 242.11843815 111.16759629 246.00671901 115.390625 250.390625 C117.0196632 252.0196632 118.7217945 253.47402114 120.5 254.9375 C124.44509647 258.2716302 127.68102159 262.05467741 131 266 C131.84820312 266.98355469 132.69640625 267.96710938 133.5703125 268.98046875 C151 289.24297921 151 289.24297921 151 293 C146.32761037 291.13288367 146.32761037 291.13288367 144.17382812 290.25927734 C133.27279113 285.84834555 122.38091166 281.97341292 111 279 C109.75524902 278.67104736 109.75524902 278.67104736 108.48535156 278.33544922 C66.09768769 267.34168916 19.94424474 269.8453563 -22.07763672 281.28564453 C-26.35320504 282.33078345 -30.68401898 283.1368038 -35 284 C-35 193.91 -35 103.82 -35 11 C-5.14285714 0 -5.14285714 0 0 0 Z " fill="#E2EAF0" transform="translate(83,155)"/>
<path d="M0 0 C8.85896773 2.36239139 17.37508683 4.64487585 25.9375 7.75 C26.82373047 8.06582031 27.70996094 8.38164063 28.62304688 8.70703125 C30.75065908 9.46607128 32.87622183 10.23031294 35 11 C35.00203479 11.81399756 35.00203479 11.81399756 35.00411069 12.64443952 C35.08470771 44.78554795 35.17564041 76.92660805 35.28005161 109.06764748 C35.29257094 112.92424847 35.30500364 116.78084973 35.31738281 120.63745117 C35.31984881 121.40525224 35.3223148 122.1730533 35.32485552 122.96412107 C35.36461208 135.40691264 35.39734658 147.84971334 35.42749982 160.29253147 C35.45858057 173.05380345 35.4971754 185.81503664 35.54279006 198.57626504 C35.57071337 206.45476706 35.59272968 214.33324061 35.60726251 222.2117789 C35.61902083 228.24639743 35.64121809 234.28093079 35.66738319 240.31550598 C35.67648571 242.7959612 35.68215539 245.27643163 35.68421364 247.75690269 C35.68751732 251.13221789 35.70294327 254.50726213 35.7215271 257.88252258 C35.71959237 258.87375777 35.71765763 259.86499296 35.71566427 260.88626558 C35.72312976 261.78747138 35.73059525 262.68867719 35.73828697 263.61719227 C35.74170446 264.78654103 35.74170446 264.78654103 35.74519098 265.97951299 C35.88691507 268.31379231 35.88691507 268.31379231 38 271 C40.23091038 271.94684195 40.23091038 271.94684195 42.8828125 272.578125 C44.37482178 272.98297119 44.37482178 272.98297119 45.89697266 273.39599609 C46.96222168 273.67781738 48.0274707 273.95963867 49.125 274.25 C83.38951484 283.82293767 109.84659447 304.02629132 128.1875 334.75 C135.12689856 347.4250239 140.1039855 360.54915253 144.0625 374.4375 C144.37388916 375.52200439 144.68527832 376.60650879 145.00610352 377.72387695 C145.42267212 379.25081177 145.42267212 379.25081177 145.84765625 380.80859375 C146.09523682 381.71407959 146.34281738 382.61956543 146.59790039 383.55249023 C147.01323099 386.08053472 146.82001495 387.59805266 146 390 C145.65855957 389.54262451 145.31711914 389.08524902 144.96533203 388.61401367 C138.67234075 380.2117635 132.36573164 371.98823164 125.17578125 364.328125 C123.30936534 362.33102646 121.55703637 360.28977674 119.8125 358.1875 C104.90224466 341.15713842 86.20105337 327.74873614 67 316 C66.36835938 315.6086084 65.73671875 315.2172168 65.0859375 314.81396484 C44.88943744 302.4182573 22.41430795 295.47143598 0 288 C0 192.96 0 97.92 0 0 Z " fill="#EDF2F7" transform="translate(98,46)"/>
<path d="M0 0 C2.81256281 -0.02684312 5.62487241 -0.04676188 8.4375 -0.0625 C9.23994141 -0.07087891 10.04238281 -0.07925781 10.86914062 -0.08789062 C12.91295221 -0.0965143 14.95683902 -0.0522815 17 0 C18.68291385 1.68291385 18.12545158 3.76255862 18.12584114 6.070961 C18.12844889 7.17657175 18.13105664 8.28218249 18.13374341 9.4212966 C18.13151268 10.65113225 18.12928196 11.88096789 18.12698364 13.14807129 C18.12854363 14.44270625 18.13010362 15.7373412 18.13171089 17.07120752 C18.13590872 20.68132516 18.13381149 24.29141656 18.13072467 27.90153432 C18.12847262 31.78841793 18.1319492 35.67529687 18.13470459 39.56217957 C18.13916339 47.18314783 18.13818534 54.80410628 18.13529195 62.42507493 C18.13303834 68.61592908 18.13272521 74.80678045 18.13381577 80.99763489 C18.133969 81.87700019 18.13412223 82.75636549 18.13428011 83.66237822 C18.13459982 85.44849996 18.13492403 87.23462169 18.1352527 89.02074343 C18.13810781 105.78976897 18.13481998 122.55878904 18.12945233 139.32781368 C18.12498427 153.73270535 18.12576019 168.13758895 18.13037109 182.54248047 C18.13571631 199.24936668 18.13783312 215.9562481 18.13475883 232.66313505 C18.13444026 234.4428784 18.13412589 236.22262176 18.13381577 238.00236511 C18.13366149 238.87815237 18.13350721 239.75393962 18.13334826 240.65626588 C18.13248295 246.84342097 18.1339463 253.03057304 18.13629532 259.21772766 C18.13909293 266.7524342 18.13835589 274.28713031 18.13301457 281.82183564 C18.13037703 285.66997866 18.12937339 289.51810427 18.13266373 293.36624718 C18.13616867 297.52815634 18.1319986 301.69002111 18.12698364 305.85192871 C18.12921436 307.08176436 18.13144509 308.31160001 18.13374341 309.5787034 C18.13113566 310.68431415 18.12852791 311.7899249 18.12584114 312.929039 C18.12567879 313.89108797 18.12551644 314.85313693 18.12534916 315.84433889 C18 318 18 318 17 319 C14.19314649 319.09790618 11.41090064 319.12992803 8.60362244 319.12025452 C7.7125536 319.12110894 6.82148476 319.12196337 5.90341383 319.12284368 C2.89384123 319.12450122 -0.11567661 319.11897265 -3.12524414 319.11352539 C-5.27314757 319.11324355 -7.4210511 319.11340119 -9.56895447 319.1139679 C-15.41995669 319.114256 -21.2709386 319.1083572 -27.12193608 319.10139394 C-33.22919313 319.09516253 -39.33645059 319.09455677 -45.44371033 319.09336853 C-57.01761965 319.09025458 -68.59151958 319.08204035 -80.16542476 319.07201904 C-93.33811023 319.06085986 -106.51079614 319.05534795 -119.68348515 319.05032361 C-146.78899532 319.03985778 -173.89449713 319.02225712 -201 319 C-201 318.67 -201 318.34 -201 318 C-139.29 318 -77.58 318 -14 318 C-14 313.05 -14 308.1 -14 303 C-11.78645833 302.83723958 -9.57291667 302.67447917 -7.359375 302.51171875 C-4.48214792 301.8876844 -3.13675141 301.02183462 -1 299 C-0.39910974 296.6534659 -0.39910974 296.6534659 -0.49219131 293.9612627 C-0.48074373 292.91375428 -0.46929614 291.86624586 -0.45750165 290.78699476 C-0.46526207 289.63233974 -0.47302248 288.47768472 -0.48101807 287.28804016 C-0.47351681 286.06449473 -0.46601556 284.8409493 -0.458287 283.58032674 C-0.4414591 280.17774272 -0.44259624 276.77600849 -0.45119452 273.37344921 C-0.4561264 269.70675275 -0.43807069 266.0401624 -0.42277527 262.37350464 C-0.39942741 256.01872163 -0.39071629 249.66405285 -0.39188385 243.3092289 C-0.39355088 234.12119461 -0.37324094 224.93331291 -0.34752855 215.74531927 C-0.30641282 200.83925348 -0.28312584 185.93321508 -0.27099609 171.02709961 C-0.25917358 156.54530199 -0.23898841 142.06355595 -0.20751953 127.58178711 C-0.20558343 126.6894636 -0.20364733 125.79714009 -0.20165256 124.87777648 C-0.19188821 120.40135077 -0.18195906 115.92492544 -0.17194796 111.44850028 C-0.08907999 74.2990242 -0.03512321 37.14955036 0 0 Z " fill="#578DF9" transform="translate(479,178)"/>
<path d="M0 0 C1.56337173 0.45535099 3.12565849 0.91442776 4.6875 1.375 C5.55761719 1.63023437 6.42773438 1.88546875 7.32421875 2.1484375 C9.92513119 2.97617314 12.46577023 3.98630809 15 5 C15 95.09 15 185.18 15 278 C6.03428202 276.87928525 6.03428202 276.87928525 2.03125 275.73046875 C0.69755371 275.3595813 0.69755371 275.3595813 -0.66308594 274.98120117 C-1.59926758 274.71927979 -2.53544922 274.4573584 -3.5 274.1875 C-11.86056356 271.92731836 -20.20387731 270.09459839 -28.75 268.6875 C-29.71228516 268.52854248 -30.67457031 268.36958496 -31.66601562 268.20581055 C-44.37879354 266.202645 -56.90522686 265.76728978 -69.75 265.75 C-70.61017731 265.74733124 -71.47035461 265.74466248 -72.3565979 265.74191284 C-85.46995664 265.72253763 -98.1327024 266.40209321 -111.0534668 268.83813477 C-113.24985694 269.02077702 -114.90399644 268.64183701 -117 268 C-85.33895214 255.66855801 -54.10115456 247.81314491 -19.96875 246.8046875 C-19.00614258 246.7727832 -18.04353516 246.74087891 -17.05175781 246.70800781 C-15.23386874 246.65414913 -13.4153121 246.6185486 -11.59667969 246.60449219 C-10.78618164 246.58290039 -9.97568359 246.56130859 -9.140625 246.5390625 C-8.08149902 246.52673584 -8.08149902 246.52673584 -7.00097656 246.51416016 C-4.00660189 245.74474177 -2.90368637 244.42143688 -1 242 C-0.61095307 239.42260117 -0.46699826 237.27309784 -0.50552368 234.69894409 C-0.50069485 233.9618981 -0.49586602 233.22485211 -0.49089086 232.46547139 C-0.47961508 229.99468723 -0.49694165 227.52493697 -0.51416016 225.05419922 C-0.51201444 223.28347493 -0.50813695 221.51275201 -0.50265503 219.74203491 C-0.49295447 214.93223502 -0.50827277 210.12280582 -0.52856112 205.31305075 C-0.54611223 200.28513089 -0.54260745 195.25722281 -0.5418396 190.22927856 C-0.54371307 181.78739202 -0.56108505 173.3456492 -0.58837891 164.90380859 C-0.61985053 155.13348777 -0.63037443 145.36332428 -0.6289078 135.59295642 C-0.62768863 126.20420254 -0.63788547 116.81550008 -0.65449142 107.42676163 C-0.66156576 103.42599207 -0.66521915 99.42524069 -0.66627884 95.42446518 C-0.66828272 90.71801842 -0.6804513 86.0117046 -0.70061111 81.30530167 C-0.70646978 79.57426009 -0.7089101 77.84320321 -0.70775604 76.1121521 C-0.70677977 73.756988 -0.71803447 71.40220044 -0.73257446 69.04708862 C-0.72792866 68.00936383 -0.72792866 68.00936383 -0.723189 66.95067489 C-0.67116065 63.03516909 -0.67116065 63.03516909 -3 60 C-4.98821313 59.60235737 -6.98944339 59.26224651 -9 59 C-8.34 58.67 -7.68 58.34 -7 58 C-7 48.1 -7 38.2 -7 28 C-7.66 27.67 -8.32 27.34 -9 27 C-7.865625 26.71125 -6.73125 26.4225 -5.5625 26.125 C-4.386875 25.75375 -3.21125 25.3825 -2 25 C-0.74161443 22.48322887 -0.79181027 20.58706712 -0.68359375 17.7734375 C-0.64169922 16.7421875 -0.59980469 15.7109375 -0.55664062 14.6484375 C-0.51732422 13.56820312 -0.47800781 12.48796875 -0.4375 11.375 C-0.37272461 9.74304688 -0.37272461 9.74304688 -0.30664062 8.078125 C-0.2003547 5.3855483 -0.09831943 2.69287747 0 0 Z " fill="#DFE7ED" transform="translate(449,161)"/>
<path d="M0 0 C0.85708557 -0.00358521 1.71417114 -0.00717041 2.597229 -0.01086426 C13.46585429 -0.03530157 23.8783819 0.57558515 34.625 2.3125 C35.58680176 2.45308838 36.54860352 2.59367676 37.53955078 2.73852539 C53.91948445 5.15186521 69.91430739 9.07560246 85.625 14.3125 C85.625 17.9425 85.625 21.5725 85.625 25.3125 C23.915 25.3125 -37.795 25.3125 -101.375 25.3125 C-85.30839966 13.26254974 -63.12131962 7.3731118 -43.62207031 3.734375 C-42.14470453 3.45700776 -40.66987283 3.16571713 -39.19824219 2.859375 C-26.20059194 0.18964958 -13.21615018 0.02234039 0 0 Z " fill="#C2D4E2" transform="translate(378.375,440.6875)"/>
<path d="M0 0 C2.41642174 0.49176302 4.83486314 0.92615511 7.26513672 1.34277344 C25.2443197 4.63110845 42.50147853 12.15782918 58.64404297 20.53808594 C58.64404297 20.86808594 58.64404297 21.19808594 58.64404297 21.53808594 C-3.06595703 21.53808594 -64.77595703 21.53808594 -128.35595703 21.53808594 C-128.35595703 17.90808594 -128.35595703 14.27808594 -128.35595703 10.53808594 C-122.69608042 8.84774335 -117.02992753 7.18051944 -111.35595703 5.53808594 C-110.6948291 5.34633789 -110.03370117 5.15458984 -109.35253906 4.95703125 C-74.58234167 -5.02406071 -35.50590575 -7.28925121 0 0 Z " fill="#C2D4E3" transform="translate(176.35595703125,444.4619140625)"/>
</svg>
